<?xml version="1.0" standalone="no"?>
<!DOCTYPE svg PUBLIC "-//W3C//DTD SVG 20010904//EN"
 "http://www.w3.org/TR/2001/REC-SVG-20010904/DTD/svg10.dtd">
<svg version="1.0" xmlns="http://www.w3.org/2000/svg"
 width="995.000000pt" height="292.000000pt" viewBox="0 0 995.000000 292.000000"
 preserveAspectRatio="xMidYMid meet">

<g transform="translate(0.000000,292.000000) scale(0.100000,-0.100000)"
fill="#000000" stroke="none">
<path d="M437 2323 c-42 -120 -77 -221 -77 -225 0 -5 11 -8 24 -8 13 0 26 -7
30 -15 5 -13 41 -15 246 -15 185 0 240 -3 240 -12 0 -7 -119 -375 -264 -818
-262 -799 -263 -805 -239 -808 13 -2 27 -10 30 -18 7 -19 585 -21 601 -1 9 11
78 212 219 637 41 122 72 202 85 213 19 16 54 17 419 17 219 0 400 4 403 9 3
5 31 88 62 185 44 139 53 180 44 191 -6 8 -9 23 -5 35 6 20 4 20 -332 22 -310
2 -406 4 -425 7 -11 2 101 315 117 327 10 7 166 13 467 18 330 5 456 10 465
19 7 7 25 48 40 92 35 100 44 105 176 98 l97 -6 0 -86 0 -87 220 -218 220
-218 0 -396 c0 -378 -1 -396 -20 -427 -37 -60 -123 -112 -230 -140 -95 -25
-308 -34 -745 -35 l-391 0 -36 -112 c-21 -61 -35 -115 -32 -120 3 -4 12 -8 20
-8 9 0 22 -6 29 -14 20 -19 768 -32 1025 -17 254 14 418 57 548 141 103 66 97
25 96 640 -1 518 -1 536 -21 580 -14 29 -62 85 -132 155 l-111 110 0 112 c0
64 -4 114 -10 118 -6 3 -10 19 -10 36 l0 29 -90 0 -90 0 0 84 c0 47 -4 88 -10
91 -5 3 -10 17 -10 31 l0 24 -1283 0 -1283 0 -77 -217z"/>
<path d="M8058 1745 c-155 -42 -282 -165 -329 -316 -16 -52 -19 -93 -19 -279
0 -190 3 -226 20 -283 47 -151 180 -283 342 -338 54 -18 80 -21 179 -17 108 4
120 6 192 41 102 48 171 117 223 222 l39 79 3 229 c4 222 3 232 -22 311 -56
180 -183 307 -351 352 -62 17 -215 16 -277 -1z m258 -321 c21 -10 40 -31 54
-58 18 -38 20 -61 20 -219 0 -187 -5 -215 -48 -260 -41 -43 -81 -60 -142 -60
-63 0 -106 19 -144 63 l-26 32 0 189 c0 167 2 194 19 227 23 45 46 66 91 86
46 20 134 20 176 0z"/>
<path d="M6850 1140 c0 -571 1 -590 19 -590 10 0 24 -7 31 -15 16 -20 212 -22
228 -2 6 7 12 89 14 199 2 136 7 191 16 200 9 9 65 14 195 18 l182 5 3 109 c2
66 -1 113 -8 120 -5 5 -10 20 -10 33 l0 23 -187 2 -188 3 -3 69 c-2 49 1 75
13 92 l15 24 205 0 c192 0 205 1 215 19 16 31 12 168 -7 228 l-18 53 -357 0
-358 0 0 -590z"/>
<path d="M3742 1578 c3 -132 4 -143 22 -146 11 -2 26 -10 34 -18 10 -10 43
-14 128 -14 l114 0 0 -425 c0 -410 1 -425 19 -425 10 0 21 -7 25 -15 4 -12 28
-15 124 -15 78 0 122 4 130 12 9 9 12 116 12 420 0 493 -15 448 154 448 91 0
118 3 130 16 23 23 22 189 -1 255 l-18 49 -438 0 -438 0 3 -142z"/>
<path d="M4779 1142 c-158 -547 -165 -577 -146 -580 12 -2 26 -10 32 -18 8
-12 35 -14 130 -12 l120 3 22 55 c35 88 42 91 206 88 l141 -3 15 -57 c8 -32
19 -58 25 -58 5 0 17 -6 25 -14 10 -9 55 -16 126 -21 94 -6 113 -5 124 9 10
12 -13 105 -144 558 -85 299 -162 557 -170 575 -8 17 -15 36 -15 42 0 8 -51
11 -162 11 l-163 0 -166 -578z m375 6 c30 -128 34 -163 24 -169 -16 -10 -69
-11 -118 -1 l-36 7 39 163 c22 89 42 162 46 162 4 0 24 -73 45 -162z m-205
-455 c-7 -10 -15 -20 -16 -22 -2 -2 -3 5 -3 17 0 14 6 22 16 22 14 0 15 -3 3
-17z"/>
<path d="M5740 1135 c0 -519 2 -585 15 -585 9 0 27 -7 40 -16 37 -24 191 -10
206 18 7 14 10 105 7 269 -2 173 0 251 8 259 8 8 56 -54 180 -237 92 -136 184
-263 203 -280 34 -32 37 -33 126 -33 57 0 95 4 103 12 16 16 18 1103 2 1113
-5 3 -10 19 -10 36 l0 29 -115 0 -115 0 0 -290 c0 -159 -3 -290 -7 -290 -5 0
-78 105 -163 232 -85 127 -174 257 -197 290 l-43 58 -120 0 -120 0 0 -585z"/>
<path d="M8867 1558 c-4 -83 -7 -338 -7 -567 l0 -416 40 -22 c31 -19 54 -23
119 -23 44 0 91 4 105 10 l26 10 0 183 c0 210 2 216 72 224 58 7 55 11 143
-219 40 -103 74 -178 81 -178 7 0 17 -6 21 -14 6 -10 37 -14 123 -16 147 -3
150 -3 150 16 0 8 -38 107 -85 219 -47 113 -85 213 -85 224 0 10 20 35 45 55
29 24 55 60 77 104 32 64 33 71 33 187 0 114 -2 123 -31 185 -37 78 -91 134
-159 166 -49 23 -55 24 -356 24 l-306 0 -6 -152z m514 -130 c51 -15 69 -64 46
-121 -25 -58 -66 -77 -169 -77 l-88 0 0 89 c0 114 6 121 102 121 39 0 88 -5
109 -12z"/>
</g>
</svg>
